<?xml version="1.0" standalone="no"?>
<!DOCTYPE svg PUBLIC "-//W3C//DTD SVG 20010904//EN"
 "http://www.w3.org/TR/2001/REC-SVG-20010904/DTD/svg10.dtd">
<svg version="1.0" xmlns="http://www.w3.org/2000/svg"
 width="1024.000000pt" height="1024.000000pt" viewBox="0 0 1024.000000 1024.000000"
 preserveAspectRatio="xMidYMid meet">

<g transform="translate(0.000000,1024.000000) scale(0.100000,-0.100000)"
fill="#000000" stroke="none">
<path d="M6394 8703 c5 -8 1 -13 -10 -13 -14 0 -16 -9 -10 -67 3 -38 8 -133
10 -213 4 -137 4 -139 -3 -35 -5 61 -14 139 -21 175 -12 62 -15 66 -41 68 -21
2 -32 -5 -46 -28 -15 -26 -19 -28 -25 -13 -5 13 -7 8 -8 -17 -1 -19 -6 -46
-10 -60 l-8 -25 -3 25 c-2 14 -6 -44 -9 -128 l-5 -154 -325 2 c-178 0 -322 -1
-320 -3 3 -3 91 -7 195 -10 105 -3 198 -8 208 -12 21 -9 22 -34 2 -41 -12 -5
-13 -10 -5 -20 7 -7 18 -10 26 -7 8 3 14 0 14 -7 0 -7 7 -10 16 -6 10 4 13 2
8 -6 -5 -8 -2 -9 10 -5 10 4 19 1 22 -8 3 -7 12 -11 20 -8 8 3 14 0 14 -6 0
-6 7 -8 15 -5 11 5 13 2 8 -12 -5 -13 -3 -16 10 -11 12 5 15 0 15 -23 -1 -24
-5 -29 -22 -26 -12 2 -16 1 -10 -1 7 -2 9 -13 7 -24 -3 -12 -11 -18 -19 -15
-20 8 -17 -11 4 -24 15 -9 14 -10 -5 -5 -20 6 -22 4 -14 -17 6 -16 4 -26 -6
-33 -8 -6 -16 -23 -16 -38 -1 -15 -6 -27 -11 -27 -6 0 -5 -5 2 -12 10 -10 7
-15 -10 -25 -17 -9 -19 -12 -7 -13 9 0 19 -9 22 -21 4 -14 2 -19 -7 -16 -7 3
-13 -1 -13 -9 0 -7 4 -11 8 -9 3 3 9 -4 12 -15 5 -18 4 -18 -21 -2 -21 13 -24
14 -17 2 5 -8 10 -18 10 -22 0 -3 4 -10 9 -15 5 -5 6 -2 1 6 -5 9 -4 12 3 7
13 -8 5 -36 -10 -36 -5 0 -6 -5 -3 -10 5 -8 12 -7 23 2 15 12 16 11 3 -4 -7
-10 -10 -18 -5 -18 5 0 2 -5 -6 -10 -13 -9 -13 -11 0 -21 12 -8 10 -9 -9 -4
-18 6 -22 4 -15 -6 13 -21 14 -41 4 -59 -5 -10 -6 -20 -3 -24 11 -11 12 -66 2
-66 -6 0 -3 -7 5 -16 9 -8 16 -22 16 -30 0 -8 4 -14 9 -14 5 0 11 -6 14 -14 4
-10 0 -14 -14 -11 -21 4 -24 -2 -9 -25 7 -11 10 -11 10 -2 0 7 4 11 10 7 6 -4
6 -16 -1 -33 -6 -14 -7 -23 -3 -19 9 9 33 -23 34 -45 0 -9 7 -18 15 -20 10 -2
12 -7 5 -18 -8 -12 -12 -13 -19 -2 -6 11 -10 10 -15 -4 -4 -10 -4 -15 0 -12 9
10 46 -11 39 -22 -3 -5 4 -11 15 -15 11 -3 20 -13 20 -21 0 -8 4 -13 9 -10 13
8 44 -31 35 -45 -5 -9 1 -10 27 -5 l34 6 -30 -20 c-33 -22 -30 -25 10 -10 29
11 70 -3 60 -20 -3 -6 -1 -18 4 -27 9 -16 10 -16 11 -1 0 11 6 15 20 11 24 -6
53 15 46 34 -3 8 -1 11 4 8 18 -11 11 5 -19 43 -16 20 -38 60 -50 87 -11 28
-15 42 -8 31 101 -156 224 -225 400 -226 126 0 302 65 382 143 24 24 49 41 57
39 10 -3 10 -2 -1 6 -11 8 -10 13 7 30 26 26 48 68 57 110 3 17 10 32 14 32 3
0 5 44 4 98 -3 103 -21 182 -53 235 -11 18 -20 43 -20 56 0 39 -8 20 -15 -34
-24 -201 -47 -285 -103 -371 -43 -66 -94 -114 -152 -144 -59 -30 -62 -24 -5 9
28 16 57 36 63 44 11 13 8 13 -25 2 -33 -12 -71 -12 -128 -1 -34 6 -82 31 -81
41 1 6 -11 11 -26 13 -16 2 -28 8 -28 13 0 6 5 7 10 4 6 -3 10 -1 10 4 0 6 -6
11 -14 11 -8 0 -22 8 -33 18 -10 9 -13 13 -6 8 28 -18 22 2 -11 37 -18 20 -31
38 -29 41 2 2 -5 19 -15 37 -10 19 -18 42 -16 52 1 9 -1 15 -6 12 -4 -3 -8 8
-8 23 -1 60 -5 98 -12 107 -5 6 -7 31 -7 58 1 26 0 47 -3 47 -3 0 -6 12 -6 28
-2 27 -8 140 -19 332 -3 58 -8 123 -11 145 -9 85 -16 152 -19 200 -2 28 -11
76 -19 108 -9 31 -18 76 -21 99 -3 23 -10 47 -17 53 -8 7 -9 6 -4 -2z m3 -670
c-2 -37 -3 -9 -3 62 0 72 1 102 3 68 2 -34 2 -93 0 -130z m0 -125 c-3 -8 -6
-5 -6 6 -1 11 2 17 5 13 3 -3 4 -12 1 -19z m0 -55 c-3 -10 -5 -4 -5 12 0 17 2
24 5 18 2 -7 2 -21 0 -30z m-342 -303 c3 -5 1 -10 -4 -10 -6 0 -11 5 -11 10 0
6 2 10 4 10 3 0 8 -4 11 -10z m0 -140 c3 -5 2 -10 -4 -10 -5 0 -13 5 -16 10
-3 6 -2 10 4 10 5 0 13 -4 16 -10z m16 -37 c13 -16 12 -17 -3 -4 -10 7 -18 15
-18 17 0 8 8 3 21 -13z m69 -214 c0 -6 -4 -7 -10 -4 -5 3 -10 11 -10 16 0 6 5
7 10 4 6 -3 10 -11 10 -16z m647 -35 c-3 -3 -12 -4 -19 -1 -8 3 -5 6 6 6 11 1
17 -2 13 -5z"/>
<path d="M3087 8647 c-3 -9 -13 -17 -21 -17 -17 0 -50 -49 -49 -72 1 -10 -2
-18 -8 -18 -5 0 -9 -13 -9 -30 0 -16 -3 -30 -7 -30 -5 0 -7 26 -7 57 l2 58 -7
-55 c-4 -30 -8 -114 -8 -187 l-2 -132 -197 -5 c-108 -3 -200 -8 -202 -11 -3
-3 10 -6 29 -6 l34 -1 -30 -8 c-24 -6 -25 -8 -8 -9 17 -1 21 -5 16 -18 -6 -16
-5 -16 10 -4 9 7 17 20 17 27 0 17 56 19 66 2 4 -7 3 -8 -4 -4 -7 4 -19 3 -29
-2 -15 -9 -14 -11 4 -20 11 -6 23 -9 26 -5 3 3 9 -7 13 -22 5 -20 9 -23 15
-13 6 10 9 10 9 1 0 -7 23 -24 52 -38 58 -28 62 -29 53 -16 -3 5 8 3 24 -5 19
-9 31 -25 35 -45 9 -48 8 -52 -19 -47 -19 4 -23 2 -15 -7 8 -9 6 -14 -5 -19
-8 -3 -14 -11 -13 -17 2 -6 -3 -14 -11 -17 -8 -3 -11 0 -7 7 4 6 3 11 -1 11
-12 0 -33 -22 -33 -34 0 -6 4 -4 10 4 5 8 12 11 16 7 4 -4 -1 -16 -12 -28 -10
-12 -18 -23 -16 -25 7 -12 0 -13 -19 -3 -15 8 -19 8 -15 0 4 -6 3 -11 -2 -11
-17 0 -23 -32 -10 -48 11 -13 10 -14 -9 -3 -20 10 -22 9 -16 -6 6 -16 5 -17
-13 -3 -18 14 -18 14 -5 -3 13 -16 13 -20 0 -28 -11 -7 -11 -9 3 -9 22 0 43
-36 27 -45 -6 -4 -13 -5 -16 -2 -9 9 -31 -17 -26 -30 3 -7 -1 -13 -8 -13 -8 0
-3 -11 12 -27 27 -31 32 -68 10 -68 -8 0 -16 -12 -18 -27 -3 -22 0 -28 14 -28
15 0 15 -2 4 -9 -8 -5 -16 -17 -17 -26 -1 -9 -6 -20 -10 -23 -4 -4 -4 1 -1 11
5 13 3 17 -5 15 -19 -7 -22 -38 -5 -38 22 0 34 -60 15 -74 -8 -6 -13 -18 -10
-26 3 -8 1 -11 -4 -7 -5 5 -9 18 -9 30 0 11 -7 22 -15 25 -13 5 -13 3 0 -13
14 -17 13 -18 -6 -13 -32 8 -45 -4 -28 -26 7 -11 17 -16 21 -11 5 4 2 10 -4
12 -7 3 -13 9 -13 14 0 5 9 4 20 -3 11 -7 18 -18 16 -25 -3 -6 2 -19 10 -30
14 -17 14 -16 4 5 -9 18 -8 22 6 22 10 0 14 -3 11 -6 -3 -4 -1 -16 6 -28 14
-26 17 -56 5 -56 -5 0 -6 -6 -1 -12 4 -7 -6 -4 -22 6 l-30 19 23 -25 c25 -27
28 -39 10 -34 -7 1 -10 1 -5 -1 4 -3 7 -9 7 -14 0 -6 -4 -7 -10 -4 -5 3 -10 1
-10 -4 0 -17 18 -13 28 5 7 13 11 14 17 4 4 -7 2 -16 -6 -21 -10 -6 -8 -9 9
-9 12 0 22 5 22 11 0 8 5 7 15 -1 21 -17 31 -5 14 17 -13 16 -12 17 4 4 17
-13 23 -51 10 -65 -4 -3 -8 -13 -9 -22 -2 -12 0 -13 12 -3 12 10 13 9 7 -7 -6
-17 -5 -18 12 -4 17 14 18 14 6 -7 -10 -19 -9 -23 4 -23 8 0 15 -6 15 -14 0
-8 7 -16 15 -20 17 -6 21 9 5 19 -15 9 8 35 29 34 13 -1 13 -2 -1 -6 -21 -5
-21 -8 -8 -33 5 -10 21 -21 35 -24 21 -5 25 -11 21 -29 -3 -12 -3 -16 0 -9 3
6 10 10 15 6 5 -3 9 0 9 7 0 8 5 7 17 -2 14 -12 16 -12 11 1 -4 11 0 16 13 16
13 0 15 -3 7 -13 -7 -9 -7 -13 1 -13 18 0 26 4 23 13 -3 10 16 9 22 -2 3 -5
-2 -12 -11 -15 -14 -6 -15 -9 -4 -15 10 -7 9 -10 -8 -16 -11 -3 -21 -14 -21
-23 1 -15 2 -15 15 2 17 23 45 15 45 -13 0 -11 4 -22 8 -25 5 -3 6 8 4 25 -4
30 14 41 24 14 5 -11 11 -12 26 -4 14 8 25 7 43 -5 21 -14 24 -14 19 -1 -5 11
1 15 17 15 18 0 20 -3 10 -9 -17 -11 -4 -34 14 -27 8 3 25 -7 39 -21 14 -14
26 -23 26 -19 0 4 -12 18 -26 31 -22 21 -23 23 -5 18 13 -3 21 -1 21 7 0 7 -6
10 -14 7 -8 -3 -24 6 -37 20 -13 15 -18 23 -10 18 9 -5 12 -3 9 6 -3 8 -11 13
-17 11 -7 -1 -9 2 -5 9 4 7 -1 18 -11 26 -18 13 -18 13 1 14 17 0 17 1 -3 11
-13 6 -25 18 -28 27 -3 9 -18 30 -35 47 -16 18 -32 45 -36 60 -6 26 -4 25 25
-14 75 -101 220 -172 352 -172 73 0 189 27 266 62 69 31 193 142 193 173 0 13
4 25 8 27 4 2 17 25 29 52 30 71 25 237 -10 327 -14 35 -28 78 -33 94 -6 24
-10 10 -20 -73 -7 -57 -20 -129 -29 -160 -29 -99 -103 -220 -138 -226 -7 -1
-17 -5 -24 -9 -22 -14 -98 -19 -142 -8 -29 6 -51 6 -63 0 -13 -7 -18 -6 -16 3
2 6 -2 12 -9 13 -6 0 -21 10 -33 23 -19 20 -33 26 -53 23 -5 -1 -6 3 -2 9 3 5
1 10 -5 10 -6 0 -8 5 -5 10 3 6 1 10 -4 10 -6 0 -11 7 -11 16 0 8 -4 12 -10 9
-5 -3 -10 1 -10 9 0 8 -6 19 -12 23 -7 4 -14 15 -14 23 -2 24 -8 45 -15 50
-11 9 -27 90 -25 125 1 19 -2 35 -7 35 -5 0 -7 10 -6 23 1 12 -1 38 -5 57 -4
19 -8 67 -11 105 -2 39 -7 111 -10 160 -3 50 -8 108 -9 130 -2 22 2 46 8 54 8
11 8 13 -1 8 -8 -5 -11 7 -9 43 1 27 -1 50 -4 50 -3 0 -5 21 -5 48 1 26 -4 50
-10 54 -6 5 -5 8 3 8 8 0 10 5 6 12 -4 6 -9 34 -10 62 -7 117 -16 181 -29 212
-8 19 -17 34 -20 34 -3 0 -3 -4 0 -10 3 -5 3 -10 -2 -10 -4 0 -6 -217 -4 -482
1 -266 0 -480 -3 -477 -3 3 -6 165 -7 360 -1 195 -5 397 -10 449 -8 103 -31
186 -42 157z m-100 -259 c-2 -18 -4 -6 -4 27 0 33 2 48 4 33 2 -15 2 -42 0
-60z m-217 -574 c0 -8 -5 -12 -10 -9 -6 4 -8 11 -5 16 9 14 15 11 15 -7z m-25
-54 c-3 -5 -2 -10 4 -10 5 0 11 6 14 13 2 6 7 10 10 7 3 -3 -1 -14 -9 -24 -10
-15 -17 -17 -25 -9 -10 10 -5 33 7 33 3 0 2 -4 -1 -10z m5 -98 c0 -4 -9 -13
-20 -20 -23 -14 -26 -8 -7 13 13 16 27 19 27 7z m-34 -345 c1 -9 -2 -15 -7
-11 -5 3 -7 9 -4 14 3 4 0 11 -5 13 -6 3 -5 4 1 3 7 -1 13 -10 15 -19z m9 -37
c3 -5 2 -10 -4 -10 -5 0 -13 5 -16 10 -3 6 -2 10 4 10 5 0 13 -4 16 -10z m30
-48 c-3 -3 -11 0 -18 7 -9 10 -8 11 6 5 10 -3 15 -9 12 -12z m-23 -34 c-7 -7
-12 -8 -12 -2 0 14 12 26 19 19 2 -3 -1 -11 -7 -17z m988 17 c0 -8 -82 -65
-94 -65 -6 0 12 15 39 34 57 39 55 38 55 31z m-990 -35 c8 -5 12 -12 9 -15 -8
-8 -39 5 -39 16 0 11 11 11 30 -1z m80 -14 c0 -3 -4 -8 -10 -11 -5 -3 -10 -1
-10 4 0 6 5 11 10 11 6 0 10 -2 10 -4z m790 -26 c-8 -5 -19 -10 -25 -10 -5 0
-3 5 5 10 8 5 20 10 25 10 6 0 3 -5 -5 -10z m-43 -16 c-3 -3 -12 -4 -19 -1 -8
3 -5 6 6 6 11 1 17 -2 13 -5z m-709 -61 c-10 -2 -18 -9 -18 -14 0 -5 -5 -9
-11 -9 -8 0 -8 5 1 15 7 8 20 14 29 14 13 -1 13 -2 -1 -6z m49 -50 c0 -7 -4
-13 -8 -13 -4 0 -9 6 -12 13 -3 8 0 14 7 14 7 0 13 -6 13 -14z m168 -83 c3 -5
2 -10 -4 -10 -5 0 -13 5 -16 10 -3 6 -2 10 4 10 5 0 13 -4 16 -10z m49 -22
c-4 -6 -10 -5 -15 3 -14 22 -10 33 6 19 8 -7 12 -17 9 -22z"/>
<path d="M6231 8644 c0 -11 3 -14 6 -6 3 7 2 16 -1 19 -3 4 -6 -2 -5 -13z"/>
<path d="M6222 8580 c0 -19 2 -27 5 -17 2 9 2 25 0 35 -3 9 -5 1 -5 -18z"/>
<path d="M4028 8213 c12 -2 30 -2 40 0 9 3 -1 5 -23 4 -22 0 -30 -2 -17 -4z"/>
<path d="M5298 8213 c12 -2 32 -2 45 0 12 2 2 4 -23 4 -25 0 -35 -2 -22 -4z"/>
<path d="M5468 8213 c18 -2 45 -2 60 0 15 2 0 4 -33 4 -33 0 -45 -2 -27 -4z"/>
<path d="M7150 8211 c0 -4 11 -6 25 -3 14 2 25 6 25 8 0 2 -11 4 -25 4 -14 0
-25 -4 -25 -9z"/>
<path d="M3912 8190 c0 -14 2 -19 5 -12 2 6 2 18 0 25 -3 6 -5 1 -5 -13z"/>
<path d="M2513 8193 c9 -2 23 -2 30 0 6 3 -1 5 -18 5 -16 0 -22 -2 -12 -5z"/>
<path d="M2458 8183 c7 -3 16 -2 19 1 4 3 -2 6 -13 5 -11 0 -14 -3 -6 -6z"/>
<path d="M2408 8173 c7 -3 16 -2 19 1 4 3 -2 6 -13 5 -11 0 -14 -3 -6 -6z"/>
<path d="M2368 8163 c7 -3 16 -2 19 1 4 3 -2 6 -13 5 -11 0 -14 -3 -6 -6z"/>
<path d="M2550 8154 c0 -13 18 -39 24 -34 2 3 -2 14 -10 24 -8 11 -14 16 -14
10z"/>
<path d="M2335 8130 c3 -5 8 -10 11 -10 2 0 4 5 4 10 0 6 -5 10 -11 10 -5 0
-7 -4 -4 -10z"/>
<path d="M2311 8083 c12 -15 12 -16 -4 -10 -11 4 -16 3 -12 -3 3 -6 -1 -10 -9
-10 -8 0 -17 4 -21 9 -3 6 -20 4 -40 -5 -19 -8 -35 -12 -35 -9 0 3 10 9 22 14
14 5 18 10 10 15 -7 4 -24 -5 -41 -21 -24 -25 -30 -27 -42 -14 -11 13 -11 14
2 9 9 -4 16 -1 16 7 0 10 -5 11 -18 4 -10 -5 -16 -17 -14 -28 2 -14 -1 -18
-11 -14 -7 3 -11 10 -8 15 4 6 -2 5 -14 -1 -12 -6 -24 -17 -28 -24 -6 -8 -3
-8 9 1 9 8 21 10 28 6 8 -5 5 -12 -12 -24 -23 -18 -54 -16 -42 3 3 6 1 7 -6 3
-6 -4 -9 -12 -6 -17 6 -9 -43 -58 -59 -59 -5 0 1 12 15 28 13 15 -7 -2 -43
-37 -37 -36 -81 -85 -98 -110 l-31 -46 33 39 c18 21 51 57 73 80 22 23 28 28
14 11 -14 -16 -50 -61 -79 -100 -62 -83 -66 -88 -51 -55 12 24 12 24 -5 5 -27
-33 -82 -157 -106 -241 -17 -61 -22 -105 -22 -189 1 -84 -1 -96 -5 -50 -6 55
-7 49 -15 -65 -4 -69 -6 -210 -4 -315 2 -158 6 -195 21 -222 23 -43 63 -80
109 -100 20 -9 35 -20 33 -24 -3 -4 2 -10 10 -13 20 -7 3262 -4 5095 4 1039 6
1386 10 1419 19 50 14 101 62 101 95 0 18 -3 16 -16 -10 -15 -30 -61 -64 -86
-64 -7 1 1 7 17 15 l30 13 -31 1 c-20 1 -34 7 -38 18 -6 15 -8 15 -16 3 -9
-13 -10 -13 -10 0 0 13 -1 13 -10 0 -8 -12 -10 -11 -10 5 0 13 -7 21 -17 22
-10 0 -350 2 -756 4 -406 1 -740 6 -743 11 -3 4 -10 8 -15 8 -6 0 -7 -4 -4
-10 8 -13 -11 -13 -36 0 -10 6 -19 7 -19 3 0 -11 -228 -13 -257 -2 -13 5 -22
5 -19 1 9 -15 -110 -8 -129 8 -11 9 -16 10 -11 3 9 -16 23 -14 -159 -17 -82
-2 -158 1 -167 6 -9 4 -19 5 -21 0 -7 -10 -99 -8 -117 3 -8 5 -11 4 -7 -2 5
-7 -56 -11 -186 -11 -134 0 -194 3 -199 12 -6 8 -8 8 -8 -1 0 -14 -382 -16
-418 -2 -15 6 -21 5 -17 -1 3 -6 -3 -10 -14 -10 -12 0 -21 6 -21 13 0 8 -3 9
-8 1 -10 -15 -294 -15 -304 0 -6 8 -8 8 -8 0 0 -8 -31 -12 -94 -11 -82 0 -93
2 -89 16 5 13 3 13 -8 -1 -11 -14 -27 -17 -81 -15 -38 2 -68 -1 -68 -5 0 -4
-12 -3 -27 3 -20 7 -29 7 -31 -1 -3 -8 -8 -8 -18 1 -8 6 -14 8 -14 4 0 -5 -9
0 -20 10 -18 17 -20 17 -14 2 6 -17 1 -19 -46 -19 -32 0 -36 2 -21 11 9 6 10
11 2 15 -6 4 -11 2 -11 -4 0 -7 -8 -9 -20 -5 -11 4 -20 3 -19 -2 4 -21 -3 -22
-28 -6 -22 14 -26 15 -21 3 4 -12 -3 -15 -31 -15 -20 1 -42 4 -48 8 -8 5 -13
3 -13 -3 0 -8 -6 -8 -20 0 -11 6 -20 7 -20 3 0 -4 -13 -8 -30 -8 -16 0 -30 3
-30 7 0 4 -10 4 -22 0 -30 -10 -230 -8 -247 2 -8 5 -16 4 -20 -2 -4 -7 -12 -8
-20 -2 -8 4 -24 4 -36 0 -14 -5 -27 -4 -33 2 -7 7 -16 7 -29 0 -11 -6 -25 -7
-33 -2 -9 5 -19 5 -27 -2 -9 -7 -13 -7 -13 1 0 7 -5 9 -10 6 -6 -4 -18 -1 -27
7 -12 9 -15 9 -9 1 5 -9 0 -13 -13 -13 -12 0 -21 6 -21 13 0 8 -4 7 -10 -3 -8
-12 -11 -13 -19 -1 -6 10 -10 10 -13 1 -3 -9 -13 -9 -47 0 -30 8 -47 8 -54 1
-16 -16 -68 15 -61 37 5 16 5 16 -6 -1 -6 -9 -9 -21 -6 -26 10 -16 -23 -21
-38 -6 -12 13 -16 12 -26 0 -7 -8 -16 -12 -21 -9 -5 3 -9 1 -9 -5 0 -6 -8 -7
-17 -4 -11 4 -12 8 -5 11 14 4 16 22 3 22 -5 0 -13 -9 -16 -20 -4 -11 -10 -18
-14 -15 -5 2 -33 7 -62 11 -30 3 -60 11 -66 16 -9 7 -13 7 -13 -1 0 -7 -4 -9
-10 -6 -6 4 -7 -1 -3 -12 6 -17 5 -17 -14 0 -24 21 -37 22 -53 2 -12 -14 -27
-14 -76 0 -12 4 -25 2 -28 -4 -5 -8 -13 -8 -26 -1 -13 7 -21 7 -25 0 -10 -16
-27 0 -21 19 5 14 4 13 -8 -1 -17 -23 -58 -25 -50 -3 8 19 0 19 -20 0 -13 -13
-18 -12 -42 15 -31 32 -51 23 -32 -14 11 -21 11 -21 -11 -2 -18 17 -21 17 -15
3 3 -10 1 -17 -5 -17 -6 0 -11 4 -11 8 0 4 -11 8 -25 8 -14 0 -25 -4 -25 -8 0
-4 -11 -7 -25 -6 -14 1 -25 6 -25 10 0 4 -6 5 -14 2 -8 -3 -17 -1 -20 5 -4 6
-13 8 -21 4 -8 -3 -15 0 -15 6 0 6 7 11 15 11 8 0 15 5 15 11 0 5 -4 7 -10 4
-5 -3 -10 -1 -10 4 0 6 -4 11 -10 11 -5 0 -7 -6 -4 -14 3 -8 0 -17 -5 -21 -6
-3 -8 -11 -5 -17 4 -7 2 -8 -5 -4 -6 4 -9 16 -6 27 4 10 2 19 -4 19 -6 0 -7 8
-4 17 6 15 5 16 -9 3 -8 -8 -13 -22 -10 -32 2 -10 -1 -18 -7 -18 -5 0 -8 7 -5
15 4 9 0 15 -7 15 -11 0 -11 3 1 10 13 9 13 11 0 20 -10 6 -11 10 -2 10 14 0
17 27 3 32 -14 5 -24 48 -11 48 6 0 9 -4 6 -9 -7 -11 22 -36 31 -27 3 3 1 6
-6 6 -8 0 -11 8 -9 18 4 16 -13 43 -27 42 -17 -1 -18 1 -6 9 13 8 13 12 0 27
-8 10 -9 15 -4 12 6 -4 17 -3 25 3 12 7 12 9 -4 9 -15 0 -17 5 -13 29 4 19 2
31 -6 35 -7 2 -5 5 5 5 15 1 16 5 8 27 -14 35 -13 44 5 44 8 0 15 4 15 10 0 5
-7 7 -15 4 -9 -4 -15 0 -15 9 0 11 7 14 23 10 21 -5 21 -5 3 9 -16 13 -17 18
-6 38 9 18 10 25 1 28 -6 2 -11 11 -11 19 0 12 3 13 13 4 10 -8 14 -7 14 4 0
8 -3 15 -7 15 -3 0 -6 25 -7 55 0 30 4 52 8 49 14 -9 10 3 -7 20 -13 14 -13
16 -1 16 12 0 14 13 12 63 -1 34 0 56 2 49 3 -6 9 -9 15 -6 5 3 2 14 -8 25
-11 12 -13 19 -5 19 7 0 9 4 6 10 -3 6 1 7 10 4 10 -4 15 -2 13 7 -2 8 3 13
10 11 10 -2 10 2 0 18 -10 16 -9 24 11 51 13 18 19 29 13 25 -16 -10 -2 32 16
46 9 7 13 8 9 2 -3 -6 0 -11 8 -11 19 0 19 7 -1 22 -13 9 -14 16 -6 31 6 10
12 15 12 10 0 -5 6 -3 14 4 8 6 12 18 9 26 -3 8 0 14 7 14 6 0 9 4 6 8 -3 5 4
19 15 30 11 12 15 22 9 22 -8 0 -8 6 0 20 6 11 7 20 3 20 -4 0 2 6 12 14 11 8
24 12 29 8 5 -3 7 2 3 11 -4 11 -1 17 9 17 8 0 12 5 9 10 -3 6 0 10 9 10 8 0
17 6 19 13 4 9 6 9 6 -1 1 -8 12 -3 28 13 15 14 32 25 38 25 6 0 10 10 9 23
-2 27 -21 77 -30 77 -3 0 -4 -7 -1 -15 4 -8 1 -17 -5 -21 -6 -4 -8 -3 -4 4 3
6 -7 17 -25 26 -29 14 -30 14 -18 -1z m26 -29 c-3 -3 -12 -4 -19 -1 -8 3 -5 6
6 6 11 1 17 -2 13 -5z m-582 -440 c-8 -20 -15 -39 -15 -42 0 -3 -2 -3 -5 0 -6
5 22 78 30 78 3 0 -2 -16 -10 -36z m295 -244 c0 -5 -2 -10 -4 -10 -3 0 -8 5
-11 10 -3 6 -1 10 4 10 6 0 11 -4 11 -10z m-377 -230 c3 -11 1 -18 -4 -14 -5
3 -9 12 -9 20 0 20 7 17 13 -6z m667 -460 c0 -5 -2 -10 -4 -10 -3 0 -8 5 -11
10 -3 6 -1 10 4 10 6 0 11 -4 11 -10z m345 -30 c3 -6 -1 -7 -9 -4 -18 7 -21
14 -7 14 6 0 13 -4 16 -10z m4308 -97 c-7 -2 -19 -2 -25 0 -7 3 -2 5 12 5 14
0 19 -2 13 -5z m350 0 c-34 -2 -93 -2 -130 0 -37 2 -9 3 62 3 72 0 102 -1 68
-3z m160 0 c-18 -2 -48 -2 -65 0 -18 2 -4 4 32 4 36 0 50 -2 33 -4z m130 0
c-7 -2 -21 -2 -30 0 -10 3 -4 5 12 5 17 0 24 -2 18 -5z m124 1 c-3 -3 -12 -4
-19 -1 -8 3 -5 6 6 6 11 1 17 -2 13 -5z m-3254 -11 c-7 -2 -19 -2 -25 0 -7 3
-2 5 12 5 14 0 19 -2 13 -5z m304 1 c-3 -3 -12 -4 -19 -1 -8 3 -5 6 6 6 11 1
17 -2 13 -5z m170 -1 c-20 -2 -52 -2 -70 0 -17 2 0 4 38 4 39 0 53 -2 32 -4z
m316 0 c-18 -2 -48 -2 -65 0 -18 2 -4 4 32 4 36 0 50 -2 33 -4z m150 0 c-18
-2 -48 -2 -65 0 -18 2 -4 4 32 4 36 0 50 -2 33 -4z m155 0 c-10 -2 -28 -2 -40
0 -13 2 -5 4 17 4 22 1 32 -1 23 -4z m195 0 c-7 -2 -19 -2 -25 0 -7 3 -2 5 12
5 14 0 19 -2 13 -5z"/>
<path d="M2390 8071 c0 -5 5 -13 10 -16 6 -3 10 -2 10 4 0 5 -4 13 -10 16 -5
3 -10 2 -10 -4z"/>
<path d="M2426 8057 c3 -10 9 -15 12 -12 3 3 0 11 -7 18 -10 9 -11 8 -5 -6z"/>
<path d="M2406 8031 c-4 -7 -5 -15 -2 -18 9 -9 19 4 14 18 -4 11 -6 11 -12 0z"/>
<path d="M3911 7844 c0 -11 3 -14 6 -6 3 7 2 16 -1 19 -3 4 -6 -2 -5 -13z"/>
<path d="M2710 7726 c0 -2 8 -10 18 -17 15 -13 16 -12 3 4 -13 16 -21 21 -21
13z"/>
<path d="M2666 7683 c-6 -14 -5 -15 5 -6 7 7 10 15 7 18 -3 3 -9 -2 -12 -12z"/>
<path d="M2690 7591 c14 -28 26 -33 26 -11 0 10 -4 16 -8 14 -4 -3 -8 0 -8 5
0 6 -5 11 -10 11 -7 0 -7 -6 0 -19z"/>
<path d="M2109 7573 c-13 -15 -12 -15 7 -5 12 6 25 8 29 4 5 -4 5 -1 1 6 -10
16 -21 15 -37 -5z"/>
<path d="M2660 7576 c0 -2 7 -7 16 -10 8 -3 12 -2 9 4 -6 10 -25 14 -25 6z"/>
<path d="M5996 7523 c-6 -14 -5 -15 5 -6 7 7 10 15 7 18 -3 3 -9 -2 -12 -12z"/>
<path d="M2655 7510 c-3 -6 1 -7 9 -4 18 7 21 14 7 14 -6 0 -13 -4 -16 -10z"/>
<path d="M2675 7490 c-3 -5 -1 -10 4 -10 6 0 11 5 11 10 0 6 -2 10 -4 10 -3 0
-8 -4 -11 -10z"/>
<path d="M2641 7474 c0 -11 3 -14 6 -6 3 7 2 16 -1 19 -3 4 -6 -2 -5 -13z"/>
<path d="M2590 7400 c0 -5 5 -10 11 -10 5 0 7 5 4 10 -3 6 -8 10 -11 10 -2 0
-4 -4 -4 -10z"/>
<path d="M2660 7402 c0 -5 7 -16 16 -23 14 -12 16 -11 13 5 -4 20 -29 35 -29
18z"/>
<path d="M2595 7370 c-3 -6 1 -7 9 -4 18 7 21 14 7 14 -6 0 -13 -4 -16 -10z"/>
<path d="M2612 7277 c10 -8 13 -18 8 -26 -6 -11 -9 -11 -13 0 -4 10 -6 9 -6
-3 -1 -23 15 -23 28 -1 9 17 11 16 35 -6 24 -23 25 -23 23 -3 0 12 -3 19 -6
17 -2 -3 -14 1 -25 8 -12 8 -30 17 -41 20 -18 6 -18 6 -3 -6z"/>
<path d="M6060 7231 c0 -6 4 -13 10 -16 6 -3 7 1 4 9 -7 18 -14 21 -14 7z"/>
<path d="M6045 7200 c-3 -5 -1 -10 4 -10 6 0 11 5 11 10 0 6 -2 10 -4 10 -3 0
-8 -4 -11 -10z"/>
<path d="M2630 7176 c0 -8 4 -17 9 -20 5 -4 7 3 4 14 -6 23 -13 26 -13 6z"/>
<path d="M2601 7156 c-9 -11 -9 -16 1 -22 7 -4 10 -4 6 1 -4 4 -3 14 3 22 6 7
9 13 6 13 -2 0 -10 -6 -16 -14z"/>
<path d="M2740 7119 c0 -6 -7 -8 -17 -5 -15 6 -15 5 1 -13 13 -14 14 -20 5
-23 -8 -3 -6 -7 6 -12 11 -4 16 -4 12 0 -4 4 0 17 8 30 12 19 12 23 0 28 -8 3
-15 1 -15 -5z"/>
<path d="M2621 7084 c0 -11 3 -14 6 -6 3 7 2 16 -1 19 -3 4 -6 -2 -5 -13z"/>
<path d="M2676 7077 c3 -10 9 -15 12 -12 3 3 0 11 -7 18 -10 9 -11 8 -5 -6z"/>
<path d="M6150 7060 c0 -5 7 -7 15 -4 8 4 15 8 15 10 0 2 -7 4 -15 4 -8 0 -15
-4 -15 -10z"/>
<path d="M2766 7037 c3 -10 9 -15 12 -12 3 3 0 11 -7 18 -10 9 -11 8 -5 -6z"/>
<path d="M2793 7013 c10 -9 -43 -34 -57 -26 -6 4 -5 -1 3 -10 12 -16 15 -16
25 -1 7 9 19 14 27 12 8 -1 16 0 17 5 5 17 1 27 -10 27 -6 0 -8 -3 -5 -7z"/>
<path d="M6255 7010 c3 -5 8 -10 11 -10 2 0 4 5 4 10 0 6 -5 10 -11 10 -5 0
-7 -4 -4 -10z"/>
<path d="M2660 7000 c-9 -6 -10 -10 -3 -10 6 0 15 5 18 10 8 12 4 12 -15 0z"/>
<path d="M6265 6980 c3 -5 8 -10 11 -10 2 0 4 5 4 10 0 6 -5 10 -11 10 -5 0
-7 -4 -4 -10z"/>
<path d="M2815 6970 c-3 -5 1 -10 9 -10 9 0 16 5 16 10 0 6 -4 10 -9 10 -6 0
-13 -4 -16 -10z"/>
<path d="M2860 6970 c0 -15 15 -19 30 -9 8 5 13 9 10 10 -3 0 -13 2 -22 4 -10
2 -18 -1 -18 -5z"/>
<path d="M3231 6945 c9 -11 14 -26 11 -34 -4 -12 -3 -12 11 0 8 8 14 14 13 14
0 0 -12 9 -26 20 -25 20 -25 20 -9 0z"/>
<path d="M2935 6941 c-12 -12 -3 -23 15 -18 10 3 22 0 25 -7 3 -8 7 -8 11 2 3
6 11 9 16 6 7 -4 8 -2 4 5 -4 6 -12 9 -17 6 -5 -4 -9 -2 -9 2 0 9 -37 12 -45
4z"/>
<path d="M2880 6916 c0 -2 7 -7 16 -10 8 -3 12 -2 9 4 -6 10 -25 14 -25 6z"/>
<path d="M2865 6890 c3 -5 8 -10 11 -10 2 0 4 5 4 10 0 6 -5 10 -11 10 -5 0
-7 -4 -4 -10z"/>
<path d="M2936 6888 c3 -5 10 -6 15 -3 13 9 11 12 -6 12 -8 0 -12 -4 -9 -9z"/>
<path d="M3125 6880 c-3 -5 -5 -10 -3 -11 33 -8 38 -7 27 7 -14 17 -16 17 -24
4z"/>
<path d="M2059 6753 c-13 -16 -12 -17 4 -4 9 7 17 15 17 17 0 8 -8 3 -21 -13z"/>
<path d="M2150 6706 c0 -2 7 -7 16 -10 8 -3 12 -2 9 4 -6 10 -25 14 -25 6z"/>
<path d="M2240 6701 c0 -10 19 -25 25 -20 1 2 -3 10 -11 17 -8 7 -14 8 -14 3z"/>
<path d="M2845 6700 c3 -5 8 -10 11 -10 2 0 4 5 4 10 0 6 -5 10 -11 10 -5 0
-7 -4 -4 -10z"/>
<path d="M3060 6706 c0 -2 7 -7 16 -10 8 -3 12 -2 9 4 -6 10 -25 14 -25 6z"/>
<path d="M2810 6689 c0 -5 5 -7 10 -4 6 3 10 8 10 11 0 2 -4 4 -10 4 -5 0 -10
-5 -10 -11z"/>
<path d="M2936 6685 c-11 -8 -15 -15 -9 -15 6 0 16 7 23 15 16 19 11 19 -14 0z"/>
<path d="M2980 6689 c0 -5 5 -7 10 -4 6 3 10 8 10 11 0 2 -4 4 -10 4 -5 0 -10
-5 -10 -11z"/>
<path d="M3131 6684 c0 -11 3 -14 6 -6 3 7 2 16 -1 19 -3 4 -6 -2 -5 -13z"/>
<path d="M2190 6680 c0 -5 5 -10 10 -10 6 0 10 5 10 10 0 6 -4 10 -10 10 -5 0
-10 -4 -10 -10z"/>
<path d="M2510 6681 c0 -5 5 -13 10 -16 6 -3 10 -2 10 4 0 5 -4 13 -10 16 -5
3 -10 2 -10 -4z"/>
<path d="M3150 6680 c0 -6 7 -10 15 -10 8 0 15 2 15 4 0 2 -7 6 -15 10 -8 3
-15 1 -15 -4z"/>
<path d="M2830 6669 c0 -5 5 -7 10 -4 6 3 10 8 10 11 0 2 -4 4 -10 4 -5 0 -10
-5 -10 -11z"/>
<path d="M2625 6660 c-3 -5 -1 -10 4 -10 6 0 11 5 11 10 0 6 -2 10 -4 10 -3 0
-8 -4 -11 -10z"/>
<path d="M2865 6027 c-17 -8 -35 -20 -41 -28 -16 -19 -44 -116 -44 -150 0 -25
-3 -27 -68 -33 -124 -12 -229 -81 -273 -179 l-24 -52 -3 -670 c-2 -398 1 -695
7 -733 19 -120 85 -207 199 -260 l57 -27 900 0 900 0 56 26 c73 35 134 90 167
153 l27 51 0 740 c0 833 5 772 -77 862 -66 71 -105 86 -230 91 l-108 4 0 -63
c-1 -98 -7 -160 -16 -169 -5 -5 -8 40 -6 102 3 93 1 113 -12 120 -21 12 -21
39 -1 32 16 -7 19 4 9 31 -5 13 -8 14 -15 3 -7 -10 -9 -9 -9 5 0 9 7 17 16 17
14 0 14 1 0 16 -9 8 -16 21 -16 29 0 7 -6 16 -12 18 -10 4 -9 8 2 16 12 9 10
11 -10 9 -14 -2 -28 -7 -32 -13 -5 -6 -11 -5 -17 4 -7 10 -21 12 -56 8 -25 -4
-44 -3 -41 1 3 5 -7 7 -22 4 -19 -2 -33 3 -46 17 l-19 21 134 0 c92 0 139 -4
147 -12 7 -7 13 -48 14 -102 l2 -91 3 89 c5 128 8 126 -183 126 l-152 0 -26
-30 c-25 -31 -33 -57 -39 -140 l-4 -45 -342 -5 c-189 -3 -346 -3 -350 0 -5 3
-11 48 -15 100 -3 52 -11 99 -17 105 -16 16 -278 18 -314 2z m320 -117 c6 -58
7 -150 4 -205 l-5 -100 -3 90 c-2 50 -4 106 -6 125 -2 19 -3 63 -4 96 -1 48
-5 63 -18 68 -9 4 -62 7 -117 7 -55 0 -105 4 -111 8 -5 5 -19 11 -30 14 -11 3
48 4 130 3 l150 -1 10 -105z m1377 -132 c59 -25 109 -79 134 -144 18 -46 19
-87 19 -769 l0 -720 -23 -52 c-13 -28 -33 -60 -45 -70 -21 -18 -21 -18 0 10
44 57 56 121 57 287 1 85 -2 172 -5 193 -4 20 -3 39 1 42 4 2 6 53 4 112 -5
132 -5 182 -1 253 2 30 0 62 -4 71 -4 8 -4 21 1 29 5 9 4 20 -3 29 -9 11 -9
15 2 19 11 4 11 6 0 13 -10 6 -11 11 -3 17 16 11 13 114 -3 107 -7 -2 -13 0
-13 5 0 6 7 10 15 10 8 0 15 5 15 11 0 6 -7 9 -15 5 -8 -3 -15 -1 -15 4 0 6 4
10 9 10 14 0 21 44 8 52 -8 5 -8 8 -1 8 10 0 10 67 -1 98 -3 8 0 10 8 6 8 -5
7 -2 -2 9 -10 13 -10 17 -1 17 10 0 10 3 0 15 -7 8 -10 24 -7 35 3 11 1 23 -5
26 -5 3 -8 15 -5 25 3 11 -6 30 -24 49 -16 16 -29 34 -29 40 0 6 -22 33 -49
61 -50 51 -98 68 -128 46 -8 -6 -13 -6 -13 1 0 6 -8 11 -17 11 -63 1 -80 12
-82 49 -1 20 162 5 221 -20z m-1793 18 c-2 -2 -35 -6 -74 -9 -41 -3 -60 -2
-45 3 25 8 127 13 119 6z m1158 -11 c8 -8 15 -30 15 -47 1 -45 24 -136 43
-164 25 -38 48 -44 177 -48 143 -4 138 -4 115 -17 -10 -6 -55 -13 -100 -16
-76 -5 -118 1 -171 23 -15 6 -17 4 -11 -7 4 -8 6 -12 2 -9 -3 3 -6 9 -6 13 0
4 -13 23 -29 42 -22 28 -29 47 -30 88 -2 50 -18 106 -31 108 -23 4 -101 3
-101 -1 0 -3 -36 -4 -80 -3 -46 0 -80 -3 -80 -9 0 -5 -5 -6 -10 -3 -6 4 -8 9
-6 13 2 4 -17 6 -42 5 -26 -1 -47 -2 -47 -3 0 0 -37 -2 -82 -3 -46 -1 -83 -5
-83 -8 0 -9 -105 8 -129 20 -11 7 -21 18 -21 27 0 22 685 21 707 -1z m-1077
-94 c0 -151 23 -170 203 -172 122 -1 160 -10 98 -24 -16 -3 -74 -7 -129 -7
-112 -1 -142 10 -181 68 -22 31 -23 41 -17 105 4 47 3 68 -4 64 -5 -3 -10 1
-10 10 0 13 -9 15 -55 11 -36 -3 -65 0 -82 9 -25 13 -25 13 18 19 158 21 159
21 159 -83z m1651 -342 c18 -9 19 -32 19 -577 0 -551 -1 -568 -20 -600 -38
-61 -7 -59 -920 -63 -785 -4 -837 -3 -863 14 -64 42 -62 12 -58 636 1 349 6
570 12 576 6 6 259 12 697 15 378 3 783 6 901 7 128 2 221 -2 232 -8z m-1859
-561 c-2 -500 -1 -568 14 -606 18 -48 73 -92 115 -92 16 0 26 -6 26 -15 0 -8
-5 -11 -10 -8 -5 3 -13 0 -17 -7 -5 -8 -15 -10 -26 -5 -11 4 -25 9 -32 11 -25
5 -62 35 -62 50 0 8 -4 12 -10 9 -5 -3 -10 2 -11 12 -1 19 -4 33 -15 71 -4 13
-2 22 5 22 8 0 11 150 11 544 0 460 3 576 14 576 0 0 0 -253 -2 -562z m761
-705 c-51 -2 -136 -2 -190 0 -54 1 -12 3 92 3 105 0 149 -2 98 -3z m640 0
c-51 -2 -136 -2 -190 0 -54 1 -12 3 92 3 105 0 149 -2 98 -3z m275 0 c-32 -2
-86 -2 -120 0 -35 2 -9 3 57 3 66 0 94 -1 63 -3z"/>
<path d="M4480 5336 c0 -2 7 -9 15 -16 12 -10 15 -10 15 4 0 9 -7 16 -15 16
-8 0 -15 -2 -15 -4z"/>
<path d="M2905 5181 c-60 -9 -66 -30 -63 -194 4 -182 -2 -177 187 -177 190 0
181 -9 181 184 0 113 -3 157 -14 171 -12 16 -29 19 -132 21 -66 0 -137 -2
-159 -5z m283 -23 c13 -13 18 -303 5 -311 -5 -3 -8 54 -8 127 0 113 -3 135
-17 150 -13 12 -18 14 -18 4 0 -10 -2 -10 -8 -1 -5 8 -30 12 -70 11 -34 -1
-65 2 -69 6 -5 4 3 7 17 6 14 -1 43 -1 65 1 22 2 -9 6 -70 9 l-110 6 135 2
c95 1 140 -2 148 -10z"/>
<path d="M3422 5174 c-21 -14 -22 -21 -22 -168 0 -201 -9 -192 186 -189 80 1
153 7 164 13 19 10 20 20 20 169 0 140 -2 160 -18 174 -26 24 -296 25 -330 1z
m322 -10 c13 -12 16 -41 16 -147 0 -136 -5 -177 -22 -177 -5 0 -6 5 -3 10 6
10 8 120 6 247 -1 42 -2 43 -41 49 -22 4 -40 10 -40 15 0 4 -42 10 -92 12 -84
3 -80 3 34 5 104 2 129 -1 142 -14z m-95 -8 c-2 -2 -24 -6 -48 -9 -29 -4 -40
-2 -30 4 13 8 88 14 78 5z"/>
<path d="M4163 5168 c-11 -13 -94 -115 -184 -228 -90 -112 -193 -236 -229
-275 -54 -58 -54 -68 0 -15 24 23 204 242 300 364 47 60 98 124 114 142 31 38
31 47 -1 12z"/>
<path d="M4289 4843 c-13 -16 -12 -17 4 -4 16 13 21 21 13 21 -2 0 -10 -8 -17
-17z"/>
<path d="M4249 4793 c-13 -16 -12 -17 4 -4 9 7 17 15 17 17 0 8 -8 3 -21 -13z"/>
<path d="M3327 4749 c-9 -5 -27 -29 -38 -51 -28 -55 -21 -125 18 -177 46 -60
276 -292 305 -307 29 -15 95 -19 115 -6 6 4 -13 7 -42 7 -60 0 -42 -16 -229
194 -118 133 -146 176 -147 231 0 30 -2 32 -10 15 -7 -15 -8 -12 -4 15 3 19
17 47 32 62 28 30 29 34 0 17z"/>
<path d="M2858 4638 c-9 -16 -12 -68 -10 -173 2 -128 4 -152 19 -162 11 -9 59
-13 152 -13 151 0 177 4 186 28 4 10 9 80 12 158 8 192 16 184 -192 184 -150
0 -155 -1 -167 -22z m291 8 c-9 -9 -176 -13 -214 -6 -28 5 -2 8 89 9 71 0 127
-1 125 -3z m47 -39 c1 -24 1 -24 -3 -3 -2 14 -12 27 -21 30 -12 3 -11 4 3 3
14 -2 20 -10 21 -30z m1 -224 c-2 -32 -3 -8 -3 52 0 61 1 87 3 58 2 -29 2 -78
0 -110z"/>
<path d="M4074 4588 l-19 -23 23 19 c21 18 27 26 19 26 -2 0 -12 -10 -23 -22z"/>
<path d="M3979 4473 c-13 -16 -12 -17 4 -4 16 13 21 21 13 21 -2 0 -10 -8 -17
-17z"/>
<path d="M3864 4338 l-29 -33 33 29 c30 28 37 36 29 36 -2 0 -16 -15 -33 -32z"/>
<path d="M7512 3650 c-239 -51 -333 -329 -164 -482 46 -42 102 -68 216 -103
93 -28 120 -45 141 -85 30 -59 -16 -110 -100 -110 -66 0 -106 25 -141 89 -31
58 -36 59 -128 35 -75 -19 -86 -28 -86 -68 0 -86 103 -208 203 -243 79 -27
206 -24 282 6 87 35 168 118 191 196 33 116 -1 232 -86 294 -42 31 -83 47
-212 85 -129 39 -171 84 -137 148 16 29 73 50 117 42 56 -10 81 -27 106 -70
20 -36 25 -39 71 -42 28 -1 70 3 95 11 41 11 45 16 48 46 2 23 -7 55 -28 98
-34 69 -87 116 -158 141 -48 17 -176 24 -230 12z m156 -17 c-10 -2 -28 -2 -40
0 -13 2 -5 4 17 4 22 1 32 -1 23 -4z m77 -13 c25 -11 -1 -11 -35 0 -20 6 -21
8 -5 8 11 0 29 -3 40 -8z m65 -36 c0 -2 -9 0 -20 6 -11 6 -20 13 -20 16 0 2 9
0 20 -6 11 -6 20 -13 20 -16z m35 -24 c10 -11 16 -20 13 -20 -3 0 -13 9 -23
20 -10 11 -16 20 -13 20 3 0 13 -9 23 -20z m45 -72 c11 -24 19 -52 19 -63 0
-11 -6 -2 -13 20 -7 22 -18 50 -25 63 -6 12 -9 22 -6 22 3 0 15 -19 25 -42z
m-405 -168 l20 -25 -22 19 c-13 11 -23 24 -23 29 0 6 1 8 3 6 1 -2 11 -15 22
-29z m330 -140 c3 -6 -1 -7 -9 -4 -18 7 -21 14 -7 14 6 0 13 -4 16 -10z m86
-95 c10 -22 18 -47 18 -55 0 -8 -7 3 -15 24 -8 22 -26 55 -41 75 -24 32 -24
34 -3 16 12 -11 31 -38 41 -60z m-421 -177 c15 -21 17 -28 6 -19 -16 13 -41
51 -33 51 2 0 14 -15 27 -32z m127 -64 c-3 -3 -12 -4 -19 -1 -8 3 -5 6 6 6 11
1 17 -2 13 -5z"/>
<path d="M6626 3639 c-106 -25 -219 -116 -272 -220 -41 -81 -54 -143 -54 -259
0 -170 32 -262 126 -360 83 -87 187 -130 315 -130 219 0 403 159 438 380 46
287 -83 534 -308 586 -63 15 -186 17 -245 3z m157 -6 c-7 -2 -21 -2 -30 0 -10
3 -4 5 12 5 17 0 24 -2 18 -5z m-106 -9 c-3 -3 -12 -4 -19 -1 -8 3 -5 6 6 6
11 1 17 -2 13 -5z m176 -1 c-7 -2 -21 -2 -30 0 -10 3 -4 5 12 5 17 0 24 -2 18
-5z m57 -13 c18 -12 2 -12 -25 0 -13 6 -15 9 -5 9 8 0 22 -4 30 -9z m78 -40
c23 -17 42 -33 42 -37 0 -3 -8 1 -17 9 -10 9 -34 25 -53 37 -19 11 -30 21 -24
21 6 0 30 -14 52 -30z m106 -107 c20 -32 36 -62 36 -68 0 -5 -14 13 -30 42
-16 28 -34 54 -40 58 -10 6 -14 25 -6 25 3 0 21 -26 40 -57z m-239 -61 c102
-71 136 -264 69 -400 -61 -125 -229 -157 -325 -61 -52 52 -73 124 -67 239 6
134 58 222 146 251 48 15 133 1 177 -29z m312 -179 c-3 -10 -5 -4 -5 12 0 17
2 24 5 18 2 -7 2 -21 0 -30z m-650 -165 c-3 -7 -5 -2 -5 12 0 14 2 19 5 13 2
-7 2 -19 0 -25z m22 -63 c0 -5 -4 -3 -9 5 -5 8 -9 22 -9 30 0 16 17 -16 18
-35z m41 -60 l25 -30 -27 24 c-16 14 -28 29 -28 34 0 6 1 8 3 6 1 -2 13 -17
27 -34z m143 -72 c-7 -2 -19 -2 -25 0 -7 3 -2 5 12 5 14 0 19 -2 13 -5z"/>
<path d="M5680 3633 c-46 -2 -90 -9 -97 -15 -9 -7 -13 -37 -13 -89 0 -103 8
-109 142 -109 l98 0 0 -348 c0 -273 3 -352 13 -366 11 -15 29 -18 104 -19 62
-1 96 3 107 12 14 12 16 54 16 366 l0 353 105 4 c68 2 109 7 117 16 8 8 13 40
13 87 0 115 12 110 -278 111 -133 0 -280 -1 -327 -3z m93 -20 c-18 -2 -48 -2
-65 0 -18 2 -4 4 32 4 36 0 50 -2 33 -4z m485 -5 c7 -7 11 -26 11 -43 -2 -30
-2 -30 -8 5 l-6 35 -225 5 -225 6 221 2 c160 1 223 -1 232 -10z"/>
<path d="M2483 3615 l-23 -16 0 -453 c0 -338 3 -455 12 -464 9 -9 84 -12 274
-12 219 0 264 2 274 15 7 8 13 47 13 91 2 105 3 104 -195 104 l-158 0 0 58 c0
105 -7 100 140 104 87 2 133 7 142 16 17 17 23 143 9 170 -11 20 -21 22 -149
24 l-137 3 -3 45 c-2 24 -1 59 3 77 l6 33 149 0 c181 0 180 0 180 104 0 116
14 111 -272 114 -209 2 -246 1 -265 -13z m473 -430 l1 -50 -4 47 c-3 33 -9 48
-21 52 -12 3 -12 4 3 3 17 -2 20 -10 21 -52z m62 -396 l-3 -54 -5 62 c-3 34
-1 58 3 54 5 -4 7 -32 5 -62z"/>
<path d="M3102 3618 c-7 -7 -12 -22 -12 -34 0 -12 36 -131 79 -265 43 -134
105 -325 136 -424 31 -99 63 -190 71 -202 14 -22 21 -23 121 -23 85 0 110 3
125 17 16 14 62 150 253 743 39 122 45 149 36 173 -10 27 -12 27 -101 27 -82
0 -91 -2 -104 -22 -8 -13 -57 -159 -108 -325 -83 -270 -94 -300 -105 -279 -7
13 -51 151 -98 307 -48 156 -94 292 -102 302 -13 13 -33 17 -98 17 -50 0 -86
-5 -93 -12z"/>
<path d="M4019 3613 c-11 -13 -15 -100 -17 -451 -3 -381 -1 -437 13 -458 l15
-24 264 0 c229 0 265 2 277 16 18 22 18 146 0 167 -11 14 -39 17 -170 19
l-156 3 0 80 0 80 130 5 c126 5 130 6 142 30 16 32 17 141 1 163 -11 14 -35
17 -143 19 l-130 3 0 75 0 75 155 5 c85 3 161 9 168 13 13 9 18 151 6 181 -5
14 -39 16 -274 16 -237 0 -269 -2 -281 -17z m488 -475 c-2 -13 -4 -3 -4 22 0
25 2 35 4 23 2 -13 2 -33 0 -45z m60 -380 c-3 -8 -6 -5 -6 6 -1 11 2 17 5 13
3 -3 4 -12 1 -19z"/>
<path d="M4719 3614 c-11 -14 -15 -97 -17 -455 -3 -515 -11 -479 107 -479 38
0 81 4 95 10 l26 10 0 192 c0 194 8 315 19 287 14 -36 248 -434 274 -465 l28
-34 94 0 c72 0 97 4 109 16 14 14 16 69 16 463 0 334 -3 450 -12 459 -7 7 -44
12 -94 12 -119 0 -114 12 -114 -285 l-1 -240 -27 34 c-15 19 -88 136 -162 260
l-135 226 -96 3 c-80 2 -98 0 -110 -14z m211 -26 c9 -20 9 -21 -2 -7 -7 9 -20
18 -28 22 -12 4 -12 6 2 6 10 1 22 -9 28 -21z m50 -78 c6 -11 8 -20 6 -20 -3
0 -10 9 -16 20 -6 11 -8 20 -6 20 3 0 10 -9 16 -20z m-63 -602 c-3 -8 -6 -5
-6 6 -1 11 2 17 5 13 3 -3 4 -12 1 -19z m0 -130 c-2 -24 -4 -7 -4 37 0 44 2
63 4 43 2 -21 2 -57 0 -80z m540 15 c-3 -10 -5 -2 -5 17 0 19 2 27 5 18 2 -10
2 -26 0 -35z"/>
<path d="M4951 3134 c0 -11 3 -14 6 -6 3 7 2 16 -1 19 -3 4 -6 -2 -5 -13z"/>
<path d="M6032 2488 c-14 -14 -18 -753 -4 -762 5 -3 10 167 11 377 1 210 5
385 7 389 8 12 0 10 -14 -4z"/>
<path d="M7016 2484 c-3 -9 -6 -129 -6 -268 0 -266 -1 -272 -50 -315 -11 -10
-9 -9 10 1 14 8 33 30 43 49 16 30 17 63 16 292 -1 141 -3 257 -4 257 -2 0 -6
-7 -9 -16z"/>
<path d="M5357 2327 c-4 -87 -6 -255 -5 -373 3 -193 6 -216 22 -232 13 -11 16
-12 10 -2 -5 8 -11 184 -14 390 -5 347 -6 363 -13 217z"/>
<path d="M6569 2300 c-7 -302 -2 -396 21 -445 11 -22 34 -54 52 -71 l32 -29
-31 40 c-53 71 -56 88 -63 400 l-6 290 -5 -185z"/>
<path d="M7376 2459 c-44 -35 -76 -100 -82 -170 -5 -55 -2 -70 18 -108 30 -55
96 -102 184 -131 160 -51 199 -91 153 -153 l-23 -32 24 16 c32 21 48 64 34 87
-20 31 -73 60 -165 89 -144 44 -209 113 -209 220 0 75 17 120 62 164 44 42 46
51 4 18z"/>
<path d="M7560 2350 c-11 -7 -3 -10 28 -10 45 0 76 -22 112 -78 13 -20 19 -22
40 -13 23 9 24 10 3 10 -13 1 -29 14 -42 35 -32 51 -104 80 -141 56z"/>
<path d="M5635 2321 c11 -5 32 -12 47 -15 51 -11 75 -99 39 -147 -14 -19 -16
-27 -7 -23 24 9 46 51 46 88 0 52 -42 94 -100 101 -33 4 -40 3 -25 -4z"/>
<path d="M7330 2214 c0 -6 7 -19 16 -30 14 -18 14 -18 3 6 -14 31 -19 36 -19
24z"/>
<path d="M7302 1938 c-18 -18 -14 -67 9 -115 28 -58 35 -49 9 11 -23 54 -25
87 -8 104 7 7 10 12 7 12 -3 0 -10 -5 -17 -12z"/>
<path d="M2448 1213 c7 -3 16 -2 19 1 4 3 -2 6 -13 5 -11 0 -14 -3 -6 -6z"/>
<path d="M2495 1200 c11 -5 29 -8 40 -8 16 0 15 2 -5 8 -34 11 -60 11 -35 0z"/>
<path d="M7265 1199 c-104 -5 -912 -13 -1795 -19 -883 -5 -1825 -12 -2095 -14
-459 -3 -633 1 -764 19 -40 6 -52 5 -47 -4 4 -6 22 -11 40 -11 18 0 36 -3 39
-7 4 -3 21 -8 39 -10 18 -2 35 -9 39 -15 8 -13 467 -14 1544 -4 220 2 839 7
1375 10 1321 9 1680 19 1825 51 70 15 70 15 -200 4z"/>
</g>
</svg>
